<?xml version="1.0" standalone="no"?>
<!DOCTYPE svg PUBLIC "-//W3C//DTD SVG 20010904//EN"
 "http://www.w3.org/TR/2001/REC-SVG-20010904/DTD/svg10.dtd">
<svg version="1.0" xmlns="http://www.w3.org/2000/svg"
 width="1000.000000pt" height="1000.000000pt" viewBox="0 0 1000.000000 1000.000000"
 preserveAspectRatio="xMidYMid meet">
<metadata>
Created by potrace 1.14, written by Peter Selinger 2001-2017
</metadata>
<g transform="translate(0.000000,1000.000000) scale(0.100000,-0.100000)"
fill="#000000" stroke="none">
<path d="M4750 8134 c-14 -2 -65 -9 -115 -15 -136 -16 -156 -19 -210 -30 -27
-5 -59 -11 -70 -13 -367 -71 -801 -257 -1144 -491 -197 -134 -507 -420 -647
-595 -144 -181 -277 -387 -373 -579 -100 -199 -201 -471 -237 -638 l-17 -81
-75 -28 c-126 -46 -261 -149 -338 -260 -144 -204 -163 -491 -50 -719 92 -183
257 -318 456 -371 44 -12 103 -18 180 -18 100 0 126 4 200 28 127 42 205 89
295 181 134 134 206 304 206 485 0 47 -2 96 -5 110 -3 14 -8 39 -11 55 -19 95
-77 214 -148 301 -36 43 -128 124 -175 153 -30 18 84 357 189 561 143 278 266
447 489 671 142 143 239 224 380 319 81 54 293 180 304 180 3 0 38 15 78 34
40 19 89 41 109 50 36 16 242 85 269 91 8 2 53 12 100 23 221 54 347 67 620
67 180 0 242 -3 350 -19 14 -2 50 -7 80 -11 69 -9 295 -67 398 -102 262 -89
565 -254 770 -419 100 -80 115 -93 226 -202 208 -206 372 -435 507 -709 l79
-162 63 29 c132 59 244 84 385 83 39 0 72 0 72 2 0 1 -12 30 -26 66 -47 117
-166 353 -238 469 -62 102 -180 277 -196 290 -3 3 -21 25 -40 50 -81 105 -211
242 -370 389 -78 72 -301 236 -425 314 -317 197 -704 348 -1055 412 -14 3 -36
7 -50 9 -14 3 -43 8 -65 11 -22 3 -53 8 -70 10 -16 3 -48 8 -70 11 -45 7 -547
13 -585 8z m-2512 -2840 c65 -30 130 -94 162 -159 20 -41 25 -65 24 -135 0
-73 -4 -93 -27 -138 -54 -104 -140 -164 -254 -180 -186 -26 -352 117 -358 308
-7 240 235 403 453 304z"/>
<path d="M4770 6825 c-129 -17 -228 -40 -335 -76 -113 -38 -108 -36 -240 -100
-508 -247 -882 -730 -994 -1284 -47 -234 -46 -504 4 -745 54 -262 201 -572
369 -775 195 -236 441 -422 716 -540 79 -34 252 -90 310 -100 14 -2 50 -9 80
-15 182 -36 496 -32 675 7 17 4 35 8 40 9 118 24 345 102 419 144 81 45 202
115 211 122 6 4 51 39 100 76 162 124 334 311 432 472 66 108 105 181 99 187
-7 7 -457 193 -467 193 -4 0 -22 -26 -39 -57 -110 -198 -301 -384 -515 -502
-94 -52 -294 -125 -375 -136 -24 -4 -47 -8 -50 -10 -10 -6 -165 -17 -220 -16
-108 2 -183 11 -300 37 -52 11 -147 43 -205 69 -33 15 -69 31 -80 36 -11 5
-38 20 -60 34 -22 14 -47 28 -55 32 -64 29 -257 207 -337 313 -130 168 -235
421 -258 615 -11 86 -13 303 -4 358 52 315 163 540 369 748 113 115 157 149
272 218 384 229 864 245 1269 41 187 -94 382 -265 495 -436 l60 -91 234 88
c129 48 239 89 243 91 10 4 -45 104 -105 193 -118 175 -298 361 -448 465 -19
14 -39 28 -45 33 -24 21 -148 91 -240 136 -145 71 -349 136 -494 157 -20 3
-43 7 -51 11 -31 11 -388 10 -480 -2z"/>
<path d="M7790 5704 c-197 -38 -358 -132 -462 -269 -49 -64 -103 -174 -124
-250 -36 -132 -24 -325 29 -450 50 -119 164 -260 261 -321 39 -25 43 -30 36
-53 -5 -14 -23 -73 -40 -131 -57 -187 -143 -382 -245 -555 -45 -76 -166 -251
-210 -304 -109 -132 -287 -309 -405 -404 -132 -106 -312 -223 -449 -291 -374
-188 -758 -280 -1171 -281 -169 0 -292 8 -390 25 -30 5 -71 11 -90 14 -123 19
-294 66 -440 120 -591 222 -1067 630 -1374 1179 -36 65 -66 120 -66 121 0 2
-18 42 -40 89 l-39 86 -73 -33 c-65 -30 -153 -55 -243 -71 -16 -3 -69 -5 -117
-6 l-87 0 10 -27 c5 -15 13 -36 18 -47 5 -11 21 -49 36 -85 36 -85 158 -323
195 -380 16 -25 34 -54 39 -65 5 -11 45 -71 89 -133 393 -549 949 -958 1577
-1162 130 -42 258 -78 305 -86 14 -2 45 -9 70 -14 67 -14 157 -28 225 -35 33
-4 71 -9 85 -12 45 -9 483 -11 555 -3 39 5 95 11 125 15 48 6 143 21 245 40
56 11 230 56 310 81 474 146 927 421 1280 778 229 230 371 422 555 746 77 136
189 417 247 622 l47 165 46 12 c72 19 212 105 278 172 277 282 274 726 -5
1002 -32 31 -74 68 -93 80 -37 26 -120 73 -132 76 -4 1 -13 3 -20 6 -104 34
-273 53 -348 39z m183 -392 c228 -64 313 -348 156 -526 -57 -64 -151 -108
-231 -107 -99 1 -188 37 -245 99 -41 45 -82 142 -86 203 -11 157 109 313 258
336 17 3 31 6 32 7 6 5 82 -3 116 -12z"/>
</g>
</svg>
